HIERARCHY
ROOT Hips
{
	OFFSET 0.000000 0.000000 0.000000 
	CHANNELS 6 Xposition Yposition Zposition Zrotation Yrotation Xrotation
	JOINT LeftUpLeg
	{
		OFFSET 1.363060 -1.794630 0.839290 
		CHANNELS 3 Zrotation Yrotation Xrotation
		JOINT LeftLeg
		{
			OFFSET 2.448110 -6.726130 0.000000 
			CHANNELS 3 Zrotation Yrotation Xrotation
			JOINT LeftFoot
			{
				OFFSET 2.562200 -7.039590 0.000000 
				CHANNELS 3 Zrotation Yrotation Xrotation
				JOINT LeftToeBase
				{
					OFFSET 0.157640 -0.433110 2.322550 
					CHANNELS 3 Zrotation Yrotation Xrotation
					End Site
					{
						OFFSET 0.000000 0.000000 0.000000 
					}
				}
			}
		}
	}
	JOINT RightUpLeg
	{
		OFFSET -1.305520 -1.794630 0.839290 
		CHANNELS 3 Zrotation Yrotation Xrotation
		JOINT RightLeg
		{
			OFFSET -2.542530 -6.985550 0.000000 
			CHANNELS 3 Zrotation Yrotation Xrotation
			JOINT RightFoot
			{
				OFFSET -2.568260 -7.056230 0.000000 
				CHANNELS 3 Zrotation Yrotation Xrotation
				JOINT RightToeBase
				{
					OFFSET -0.164730 -0.452590 2.363150 
					CHANNELS 3 Zrotation Yrotation Xrotation
					End Site
					{
						OFFSET 0.000000 0.000000 0.000000 
					}
				}
			}
		}
	}
	JOINT Spine
	{
		OFFSET 0.028270 2.035590 -0.193380 
		CHANNELS 3 Zrotation Yrotation Xrotation
		JOINT Spine1
		{
			OFFSET 0.056720 2.048850 -0.042750 
			CHANNELS 3 Zrotation Yrotation Xrotation
			JOINT Neck1
			{
				OFFSET -0.054170 1.746240 0.172020 
				CHANNELS 3 Zrotation Yrotation Xrotation
				JOINT Head
				{
					OFFSET 0.104070 1.761360 -0.123970 
					CHANNELS 3 Zrotation Yrotation Xrotation
					End Site
					{
						OFFSET 0.000000 0.000000 0.000000 
					}
				}
			}
			JOINT LeftArm
			{
				OFFSET 3.362410 1.200890 -0.311210 
				CHANNELS 3 Zrotation Yrotation Xrotation
				JOINT LeftForeArm
				{
					OFFSET 4.983000 -0.000000 -0.000000 
					CHANNELS 3 Zrotation Yrotation Xrotation
					JOINT LeftHand
					{
						OFFSET 3.483560 -0.000000 -0.000000 
						CHANNELS 3 Zrotation Yrotation Xrotation
						JOINT LeftHandIndex1
						{
							OFFSET 0.715260 -0.000000 -0.000000 
							CHANNELS 3 Zrotation Yrotation Xrotation
							End Site
							{
								OFFSET 0.000000 0.000000 0.000000 
							}
						}
					}
				}
			}
			JOINT RightArm
			{
				OFFSET -3.136600 1.374050 -0.404650 
				CHANNELS 3 Zrotation Yrotation Xrotation
				JOINT RightForeArm
				{
					OFFSET -5.241900 -0.000000 -0.000000 
					CHANNELS 3 Zrotation Yrotation Xrotation
					JOINT RightHand
					{
						OFFSET -3.444170 -0.000000 -0.000000 
						CHANNELS 3 Zrotation Yrotation Xrotation
						JOINT RightHandIndex1
						{
							OFFSET -0.622530 -0.000000 -0.000000 
							CHANNELS 3 Zrotation Yrotation Xrotation
							End Site
							{
								OFFSET 0.000000 0.000000 0.000000 
							}
						}
					}
				}
			}
		}
	}
}
MOTION
Frames: 13
Frame Time: 0.041667
0.060512 18.672790 8.614834 -11.060166 -1.558388 15.578926 -27.043156 -51.695067 7.860280 0.647819 6.778850 23.209659 5.367519 29.424985 -60.926730 6.319400 -14.730800 -46.250400 8.812982 2.222716 -3.216272 0.695831 -0.202799 2.814957 0.077487 -1.480257 6.120480 0.000000 0.000000 0.000000 39.612111 15.442367 -35.040557 -17.064109 -1.392429 -3.377008 12.270423 -18.552185 36.547456 2.639300 -8.321400 10.096900 -97.736741 12.283190 -3.130028 12.886118 -13.114188 -1.613788 1.094523 -0.338209 22.407516 -7.125000 0.000000 0.000000 83.309377 -15.548198 9.345787 -15.799374 19.280201 -3.014372 0.502228 -0.556434 38.018502 7.125000 0.000000 0.000000 
0.056585 18.676112 8.630138 -11.089428 -1.320084 15.639344 -26.562335 -51.271371 7.316690 0.639937 6.817927 23.238397 5.144464 29.079694 -60.223145 6.328100 -14.738900 -46.284600 8.816672 2.221779 -3.224229 0.696275 -0.206892 2.813851 0.076664 -1.483843 6.118231 0.000000 0.000000 0.000000 39.251360 15.471333 -35.403354 -17.051236 -1.352943 -3.298915 12.345778 -18.659266 36.629129 2.636200 -8.362700 10.129200 -97.758842 12.430933 -2.492748 12.515383 -12.602648 -1.523508 1.027507 0.031909 25.068427 -7.125000 0.000000 0.000000 83.419889 -15.607377 9.210992 -15.807880 19.279642 -3.015811 0.507583 -0.549761 37.928943 7.125000 0.000000 0.000000 
0.054773 18.678831 8.643932 -11.079252 -1.077834 15.764139 -26.108989 -50.934758 6.775696 0.616010 6.848085 23.218925 4.810081 29.084746 -59.484501 6.393600 -14.799200 -46.541600 8.822919 2.220265 -3.238192 0.697060 -0.213961 2.811975 0.075086 -1.490012 6.114231 0.000000 0.000000 0.000000 38.651485 15.499431 -36.055985 -16.974021 -1.302280 -3.162371 12.238506 -18.756100 36.725848 2.577800 -8.417900 10.137600 -97.790086 12.674006 -1.999913 12.191676 -12.163097 -1.482886 0.958034 0.378835 27.862443 -7.125000 0.000000 0.000000 83.624984 -15.739658 8.941531 -15.871706 19.345770 -3.036648 0.510382 -0.546378 37.932410 7.125000 0.000000 0.000000 
0.051551 18.681046 8.655611 -11.118135 -0.847892 15.894471 -25.691464 -50.772775 6.365247 0.588504 6.856280 23.153921 4.533960 29.241613 -58.968208 6.481900 -14.879600 -46.886400 8.827750 2.218357 -3.249190 0.697873 -0.220152 2.810069 0.073836 -1.495554 6.110960 0.000000 0.000000 0.000000 38.365350 15.497988 -36.457221 -16.887773 -1.310343 -3.109786 11.869408 -18.735171 36.760447 2.475500 -8.450200 10.129700 -97.893899 12.885625 -1.709613 11.876006 -11.755526 -1.474985 0.889045 0.697748 30.756328 -7.125000 0.000000 0.000000 83.813472 -15.821668 8.604206 -15.944751 19.431581 -3.060737 0.509041 -0.547472 38.142952 7.125000 0.000000 0.000000 
0.040375 18.685073 8.667593 -10.907771 -0.832233 16.284048 -25.356645 -50.826115 5.867964 0.542033 6.859186 22.996661 4.428169 29.368311 -58.857406 6.531200 -14.924100 -47.078300 8.833437 2.215972 -3.268239 0.699878 -0.230796 2.807316 0.072031 -1.504408 6.104125 0.000000 0.000000 0.000000 37.347547 15.556105 -37.660186 -16.433818 -1.244483 -3.032162 11.658823 -18.705809 36.756242 2.455000 -8.476100 10.135500 -98.213068 13.601788 -0.513310 11.385825 -11.107618 -1.541572 0.661628 1.258579 35.906299 -7.125000 0.000000 0.000000 83.899779 -16.073359 8.655024 -15.858916 19.321688 -3.038902 0.512796 -0.552813 38.104433 7.125000 0.000000 0.000000 
0.028595 18.688698 8.688032 -10.484529 -0.765725 16.821210 -25.081456 -51.015228 5.260156 0.486249 6.878386 22.820324 4.326712 29.446000 -58.743995 6.555700 -14.946100 -47.173300 8.839673 2.215104 -3.293115 0.702293 -0.243194 2.805157 0.070004 -1.513947 6.094990 0.000000 0.000000 0.000000 35.558462 15.514657 -39.558230 -15.785755 -1.140267 -2.890183 11.874638 -18.768537 36.775943 2.560900 -8.508200 10.168700 -98.332702 14.136753 0.055898 11.521827 -11.205932 -1.556644 0.612346 1.246931 35.497546 -7.125000 0.000000 0.000000 83.888079 -16.528898 9.233086 -15.664316 19.070813 -2.985987 0.522833 -0.557590 37.487785 7.125000 0.000000 0.000000 
0.025876 18.688799 8.710888 -10.009634 -0.679892 17.049413 -25.427574 -51.297061 5.302739 0.446830 6.840482 22.637600 4.348871 29.501769 -58.856281 6.552600 -14.943300 -47.161200 8.841795 2.217150 -3.304494 0.702954 -0.246964 2.805669 0.068982 -1.516045 6.090839 0.000000 0.000000 0.000000 34.357192 15.390230 -40.720609 -15.378077 -1.069443 -2.706319 12.189252 -18.862474 36.658931 2.658700 -8.532600 10.135300 -98.387662 14.400214 0.358897 11.613600 -11.274940 -1.564704 0.584906 1.232521 35.357827 -7.125000 0.000000 0.000000 83.852035 -16.759061 9.658144 -15.580621 18.958071 -2.961931 0.528959 -0.556143 37.017433 7.125000 0.000000 0.000000 
0.025473 18.688396 8.729011 -9.970981 -0.543352 17.065150 -25.519193 -51.389155 5.446427 0.435062 6.807740 22.555875 4.354645 29.559674 -58.904542 6.577400 -14.965400 -47.257100 8.842553 2.217288 -3.306833 0.703020 -0.247803 2.805662 0.068693 -1.516649 6.090172 0.000000 0.000000 0.000000 34.226098 15.376712 -40.883399 -15.360156 -1.061570 -2.622036 12.437318 -18.952904 36.292138 2.727300 -8.555900 10.039900 -98.391827 14.396640 0.502211 11.629859 -11.288619 -1.562496 0.572601 1.223943 35.243115 -7.125000 0.000000 0.000000 83.839095 -16.715315 9.782784 -15.558561 18.924110 -2.953075 0.531310 -0.554080 36.949881 7.125000 0.000000 0.000000 
0.020137 18.689805 8.747436 -9.884166 -0.383190 17.248313 -25.397227 -51.553903 5.200439 0.438031 6.859949 22.628612 4.325284 29.559959 -58.863907 6.603900 -14.989000 -47.359700 8.843215 2.217763 -3.310822 0.703305 -0.249450 2.805756 0.068451 -1.517680 6.088670 0.000000 0.000000 0.000000 33.997871 15.335462 -41.208629 -15.180264 -1.077202 -2.499125 12.382435 -18.982831 36.097213 2.723700 -8.584600 9.993700 -98.425893 14.431667 0.660328 11.629960 -11.273647 -1.565222 0.561375 1.235090 35.056004 -7.125000 0.000000 0.000000 83.853800 -16.719105 9.780698 -15.543822 18.904877 -2.950109 0.534401 -0.555292 37.022443 7.125000 0.000000 0.000000 
0.023158 18.688396 8.759015 -10.191662 -0.189437 17.135793 -25.266600 -51.660976 5.408622 0.479046 6.899533 22.804390 4.408887 29.467544 -58.984257 6.605700 -14.990700 -47.366800 8.845702 2.214433 -3.314050 0.703962 -0.253229 2.803455 0.068069 -1.521803 6.087880 0.000000 0.000000 0.000000 34.275384 15.397169 -40.984329 -15.359621 -1.100793 -2.696366 12.243931 -18.981406 36.063215 2.691400 -8.601600 9.987900 -98.448054 14.451592 0.717187 11.619305 -11.275742 -1.566998 0.558217 1.239776 34.984110 -7.125000 0.000000 0.000000 83.891466 -16.717298 9.774857 -15.554715 18.921348 -2.950698 0.531100 -0.554264 37.141604 7.125000 0.000000 0.000000 
0.026178 18.685879 8.792241 -11.055084 0.409115 17.139894 -24.277202 -51.809311 5.214246 0.526302 6.990515 23.064304 4.259375 29.637818 -58.756951 6.724100 -15.095100 -47.822900 8.849188 2.210823 -3.315191 0.704043 -0.256124 2.801468 0.068511 -1.525406 6.088627 0.000000 0.000000 0.000000 35.123895 15.456042 -40.261095 -15.979019 -1.206084 -2.608497 12.560405 -19.104041 35.856292 2.758000 -8.613100 10.010000 -98.389428 14.337199 0.753514 11.576650 -11.262598 -1.562669 0.564923 1.239920 35.016246 -7.125000 0.000000 0.000000 83.917610 -16.602660 9.997206 -15.583981 18.934238 -2.957240 0.533815 -0.554017 37.028479 7.125000 0.000000 0.000000 
0.028796 18.687087 8.814895 -11.166171 0.624651 17.239022 -24.100158 -52.000040 5.019245 0.561841 7.096555 23.322861 4.203822 29.763052 -58.736810 6.805700 -15.166100 -48.135500 8.850015 2.211787 -3.315945 0.703661 -0.255689 2.802136 0.068764 -1.524829 6.088844 0.000000 0.000000 0.000000 35.055514 15.449573 -40.288364 -16.119606 -1.186795 -2.380267 12.935073 -19.233620 35.717942 2.835100 -8.628500 10.008700 -98.291975 14.266011 0.936764 11.547656 -11.229872 -1.561798 0.568728 1.249254 34.985766 -7.125000 0.000000 0.000000 83.902790 -16.515849 10.285240 -15.621426 18.966257 -2.971800 0.539890 -0.550355 36.765879 7.125000 0.000000 0.000000 
0.033327 18.686483 8.827582 -11.521935 0.880897 17.148859 -23.775038 -51.972663 4.972785 0.604929 7.167528 23.554163 4.156120 29.739723 -58.603795 6.860400 -15.213200 -48.344300 8.852793 2.209033 -3.318638 0.703983 -0.258678 2.800291 0.068534 -1.528215 6.088553 0.000000 0.000000 0.000000 35.392422 15.494633 -39.980358 -16.398910 -1.215020 -2.474614 12.879469 -19.242464 35.579405 2.815800 -8.637200 9.976500 -98.288828 14.265228 1.204379 11.562157 -11.264052 -1.568381 0.556745 1.251060 34.749002 -7.125000 0.000000 0.000000 83.884286 -16.425227 10.432801 -15.665070 19.023423 -2.987290 0.542326 -0.544710 36.671692 7.125000 0.000000 0.000000 
